# xmcd
#
# Track frame offsets:
#	150
#	12709
#	28480
#	39928
#	56755
#	68574
#	78378
#	90824
#	103388
#	116590
#	128594
#	145129
#	157135
#	169935
#	180132
#	191649
#	209299
#	217793
#	228172
#	237802
#
# Disc length: 3314 seconds
#
# Revision: 0
# Processed by: cddbd v1.5.2PL0 Copyright (c) Steve Scherf et al.
# Submitted via: dBpowerAMP V4.0
#
DISCID=0a0cf014
DTITLE=Michèle Richard - 40 Chansons Country CD1
DYEAR=1900
DGENRE=
TTITLE0=Ouvre moi la porte
TTITLE1=Jamais assez 
TTITLE2=Coucher seule dans un lit trop grand 
TTITLE3=Madame
TTITLE4=Reste avec lui
TTITLE5=La vie à deux
TTITLE6=Le coeur sur ma maison
TTITLE7=Divorce
TTITLE8=On oublie de vivre sa vie
TTITLE9=Son chapeau
TTITLE10=Quand je pense à notre histoire
TTITLE11=Une place au soleil
TTITLE12=Kiss me
TTITLE13=O shérif O
TTITLE14=Embrasse-moi et vas-t'en
TTITLE15=On ne fait pas l'amour
TTITLE16=La fille de la prairie
TTITLE17=Quand viendra le jour
TTITLE18=Quand va-t-on m'aimer
TTITLE19=Bonjour tristesse
EXTD=
EXTT0=
EXTT1=
EXTT2=
EXTT3=
EXTT4=
EXTT5=
EXTT6=
EXTT7=
EXTT8=
EXTT9=
EXTT10=
EXTT11=
EXTT12=
EXTT13=
EXTT14=
EXTT15=
EXTT16=
EXTT17=
EXTT18=
EXTT19=
PLAYORDER=
